PathFileType	4	(X/Y/Z)	Walk5.trc
DataRate	CameraRate	NumFrames	NumMarkers	Units	OrigDataRate	OrigDataStartFrame	OrigNumFrames
200.000000	200.000000	9	61	mm	200.000000	321	487
Frame#	Times		LFHD		RFHD		CLAV		LASI		RASI		RACR1		RUA1		RFA1		RWRU		RCAR		LACR1		LUA1		LWRU		LCAR		RTH3		LTH1		LTH3		LTH2		LTH4		LLFC		LTB1		LTB2		LTB4		LFA1		RTB1		LToe		LTB3		STRN		RTB4		RWRR		RTB3		RMFC		RMT5		RTH2		LBHD		RMT1		RTB2		LElbow		RLFC		RMMAL		LMFC		RTH4		RToe		LWRR		T10		RElbow		RTH1		LPSI		RBack		RBHD		LMT5		RLMAL		RCAL		RPSI		LElbowM		LMMAL		RElbowM		LCAL		LLMAL		LMT1		C7
			X1	Y1	Z1	X2	Y2	Z2	X3	Y3	Z3	X4	Y4	Z4	X5	Y5	Z5	X6	Y6	Z6	X7	Y7	Z7	X8	Y8	Z8	X9	Y9	Z9	X10	Y10	Z10	X11	Y11	Z11	X12	Y12	Z12	X13	Y13	Z13	X14	Y14	Z14	X15	Y15	Z15	X16	Y16	Z16	X17	Y17	Z17	X18	Y18	Z18	X19	Y19	Z19	X20	Y20	Z20	X21	Y21	Z21	X22	Y22	Z22	X23	Y23	Z23	X24	Y24	Z24	X25	Y25	Z25	X26	Y26	Z26	X27	Y27	Z27	X28	Y28	Z28	X29	Y29	Z29	X30	Y30	Z30	X31	Y31	Z31	X32	Y32	Z32	X33	Y33	Z33	X34	Y34	Z34	X35	Y35	Z35	X36	Y36	Z36	X37	Y37	Z37	X38	Y38	Z38	X39	Y39	Z39	X40	Y40	Z40	X41	Y41	Z41	X42	Y42	Z42	X43	Y43	Z43	X44	Y44	Z44	X45	Y45	Z45	X46	Y46	Z46	X47	Y47	Z47	X48	Y48	Z48	X49	Y49	Z49	X50	Y50	Z50	X51	Y51	Z51	X52	Y52	Z52	X53	Y53	Z53	X54	Y54	Z54	X55	Y55	Z55	X56	Y56	Z56	X57	Y57	Z57	X58	Y58	Z58	X59	Y59	Z59	X60	Y60	Z60	X61	Y61	Z61

321	1.605	359.52	1572.2	-69.3	354.09	1576.2	30.13	329.99	1289.8	-16.062	303.83	880.23	-134.16	327.24	899	113.62	255.62	1325.1	148.12	230.58	1158.1	205.36	229.29	870.53	275.56	279.42	754.85	258.99	253.45	686.8	301.19	262.06	1345.2	-164.78	278.35	1181.7	-244.84	520.78	900.34	-269.77	558.73	839.62	-299.8	377.12	583.92	153.04	214.5	721.49	-189.75	170.73	557.65	-164.66	246.52	628.53	-160.84	191.64	638.85	-178.87	117.46	425.23	-149.72	85.1	317.56	-88.56	5.4979	274.44	-143.05	18.684	262.84	-85.051	409.41	942.13	-303.69	474.58	351.33	80.804	-61.063	20.742	-58.272	-42.41	205.06	-79.933	353.85	1155.3	-10.573	482.37	265.01	72.356	214	749.13	280.82	488.92	180.27	60.984	400.14	437.1	-7.8038	557.88	31.336	80.953	394.98	688.09	147.79	225.18	1493.3	-95.934	587.57	51.142	-0.033018	439.05	257.29	114.61	295.02	1032.3	-294.13	432.2	451.02	115.16	459.5	86.058	-4.9692	102.79	419.45	-18.461	349.2	660.99	175.37	635.9	58.975	28.173	477.37	847.75	-284.41	145.29	1180.9	-13.345	200.66	995.62	241.04	321.01	740.16	199.49	137.32	939.2	-36.164	142.08	1264.7	52.452	219.2	1505	46.302	-128.22	43.916	-113.88	451.36	62.537	74.556	402.98	32.872	30.937	149.8	938.23	63.159	273.72	997.09	-230.34	-136.39	165.79	-43.345	179.78	987.69	164.89	-210.67	184.85	-82.301	-158.22	161.66	-122.31	-105.85	38.358	-33.447	219.99	1391.9	-17.347
322	1.61	367.49	1572.3	-68.613	362.12	1576.3	30.816	338.67	1289.8	-15.359	312.45	879.58	-133.32	335.67	899.56	114	264.71	1324.8	148.99	240.23	1157.7	206.19	239.25	870.12	276.31	289.16	754.35	259.61	263.23	686.35	301.86	270.42	1345	-164.12	285.33	1181.2	-243.9	526.02	897.75	-269.38	563.24	836.66	-299.55	385.3	584.51	153.21	224.74	720.01	-188.94	183.47	555.48	-164.37	258.08	627.47	-160.14	203.14	637.04	-178.25	131.75	422.77	-149.82	97.36	315.88	-88.783	16.825	274.77	-143.51	29.569	262.8	-85.502	414.85	940.45	-302.84	481.23	350.69	80.139	-59.336	20.456	-58.769	-32.945	206.55	-80.578	362.65	1155.3	-9.7207	487.55	264.22	71.775	223.82	748.74	281.66	492.54	179.34	60.459	407.23	437.82	-7.5706	558.84	29.396	80.679	403.3	688.66	148.52	233.32	1493.1	-95.085	588.57	48.119	-0.91039	444.72	257.25	114.63	301.2	1031.6	-292.84	440.37	451.39	115.02	460.94	85.556	-5.1654	117.35	416.52	-18.536	357.38	661.53	175.71	637.34	54.961	26.984	482.06	845.51	-283.72	153.91	1180.8	-12.603	210.6	995.21	241.9	329.2	740.63	200.06	145.81	938.89	-36.422	150.87	1264.6	53.555	227.41	1504.8	47.143	-124.01	47.291	-114.68	452.94	62.255	74.436	403.6	33.576	31.183	158.19	938.54	63.031	280.08	996.68	-228.93	-128.03	169.67	-44.535	189.55	987.23	165.73	-201.07	191.7	-83.794	-149.61	166.28	-123.46	-102.51	40.761	-34.398	228.6	1391.8	-16.408
323	1.615	375.47	1572.4	-67.908	370.16	1576.5	31.521	347.32	1289.8	-14.694	320.98	879.01	-132.47	344.01	900.25	114.39	273.83	1324.6	149.81	249.94	1157.4	206.98	249.3	869.8	277.04	299.02	753.96	260.18	273.17	686	302.49	278.8	1344.9	-163.49	292.3	1180.8	-242.96	530.99	895.04	-269	567.41	833.56	-299.31	393.23	585.08	153.52	235.05	718.57	-188.16	196.41	553.35	-164.06	269.77	626.5	-159.42	214.76	635.26	-177.64	146.36	420.34	-149.85	109.98	314.32	-88.877	28.622	275.15	-143.86	40.869	262.89	-85.821	420.08	938.74	-301.96	487.63	350.02	79.588	-56.967	20.243	-59.429	-23.009	208.18	-81.1	371.37	1155.3	-8.9004	492.49	263.44	71.298	233.77	748.43	282.48	495.94	178.44	60.036	414.1	438.6	-7.2527	559.67	27.751	80.561	411.42	689.19	149.47	241.47	1492.9	-94.241	589.42	45.455	-1.6404	450.18	257.2	114.77	307.26	1030.9	-291.51	448.38	451.79	114.94	462.23	85.157	-5.2902	132.2	413.67	-18.494	365.31	662.04	176.17	638.6	51.357	25.97	486.43	843.19	-283.02	162.45	1180.9	-11.916	220.59	994.88	242.75	337.11	741.06	200.75	154.2	938.61	-36.754	159.65	1264.6	54.638	235.63	1504.7	47.983	-119.11	50.979	-115.53	454.35	62.028	74.376	404.14	34.242	31.465	166.45	938.89	62.824	286.31	996.37	-227.46	-119.14	173.66	-45.602	199.34	986.86	166.56	-190.91	198.57	-85.159	-140.44	171.01	-124.51	-98.41	43.416	-35.455	237.21	1391.8	-15.508
324	1.62	383.45	1572.7	-67.187	378.2	1576.8	32.242	355.94	1289.9	-14.075	329.42	878.53	-131.64	352.26	901.05	114.81	282.96	1324.4	150.59	259.7	1157.2	207.74	259.45	869.56	277.72	309	753.67	260.69	283.28	685.75	303.08	287.18	1344.9	-162.87	299.27	1180.5	-242.01	535.7	892.22	-268.62	571.24	830.32	-299.09	400.92	585.6	153.96	245.42	717.19	-187.41	209.52	551.3	-163.75	281.56	625.64	-158.69	226.49	633.54	-177.04	161.27	417.97	-149.82	122.95	312.91	-88.834	40.866	275.59	-144.09	52.572	263.13	-85.998	425.09	937.03	-301.07	493.76	349.32	79.168	-53.854	20.14	-60.265	-12.607	209.94	-81.484	380.01	1155.4	-8.1272	497.16	262.64	70.93	243.86	748.22	283.28	499.1	177.56	59.709	420.79	439.4	-6.8572	560.37	26.383	80.584	419.33	689.68	150.63	249.64	1492.7	-93.404	590.12	43.146	-2.2262	455.36	257.11	114.99	313.19	1030.3	-290.16	456.19	452.16	114.91	463.37	84.846	-5.3535	147.32	410.97	-18.333	372.98	662.52	176.73	639.68	48.162	25.133	490.5	840.83	-282.3	170.92	1181.1	-11.282	230.63	994.64	243.58	344.75	741.46	201.53	162.5	938.38	-37.147	168.4	1264.7	55.696	243.86	1504.6	48.817	-113.46	54.947	-116.41	455.57	61.843	74.368	404.62	34.853	31.766	174.6	939.25	62.549	292.41	996.17	-225.95	-109.7	177.74	-46.515	209.14	986.59	167.38	-180.21	205.38	-86.36	-130.72	175.8	-125.42	-93.479	46.298	-36.604	245.81	1391.9	-14.651
325	1.625	391.44	1573	-66.451	386.23	1577.1	32.98	364.53	1290	-13.506	337.76	878.15	-130.82	360.42	901.95	115.25	292.1	1324.4	151.32	269.49	1157.1	208.45	269.69	869.42	278.38	319.11	753.49	261.14	293.55	685.59	303.62	295.55	1345	-162.28	306.23	1180.3	-241.06	540.15	889.3	-268.23	574.73	826.96	-298.88	408.36	586.08	154.5	255.84	715.89	-186.68	222.77	549.35	-163.43	293.43	624.93	-157.95	238.31	631.9	-176.45	176.43	415.69	-149.71	136.23	311.68	-88.654	53.533	276.09	-144.21	64.665	263.53	-86.027	429.89	935.32	-300.15	499.59	348.58	78.891	-49.897	20.189	-61.283	-1.7407	211.82	-81.722	388.57	1155.4	-7.416	501.56	261.84	70.675	254.08	748.09	284.06	502.03	176.69	59.47	427.31	440.19	-6.3922	560.95	25.27	80.724	427.05	690.1	151.97	257.82	1492.6	-92.58	590.7	41.179	-2.6797	460.22	256.97	115.29	319.01	1029.8	-288.78	463.74	452.47	114.96	464.36	84.612	-5.3636	162.64	408.46	-18.054	380.41	662.96	177.39	640.6	45.368	24.467	494.27	838.41	-281.56	179.31	1181.4	-10.701	240.7	994.49	244.38	352.14	741.82	202.38	170.71	938.2	-37.584	177.11	1264.9	56.723	252.1	1504.6	49.642	-107	59.15	-117.32	456.63	61.689	74.406	405.03	35.398	32.076	182.63	939.64	62.217	298.4	996.07	-224.39	-99.719	181.89	-47.254	218.94	986.41	168.18	-169	212.08	-87.363	-120.45	180.62	-126.18	-87.644	49.369	-37.827	254.39	1392.1	-13.838
326	1.63	399.44	1573.3	-65.698	394.27	1577.5	33.734	373.08	1290.2	-12.993	346.01	877.87	-130.02	368.51	902.94	115.72	301.24	1324.4	152	279.32	1157	209.11	280.01	869.36	279	329.34	753.42	261.53	303.98	685.53	304.11	303.9	1345.1	-161.71	313.2	1180.1	-240.12	544.33	886.3	-267.84	577.87	823.5	-298.67	415.54	586.51	155.12	266.3	714.69	-185.99	236.13	547.54	-163.11	305.36	624.37	-157.22	250.21	630.38	-175.88	191.81	413.55	-149.54	149.81	310.65	-88.338	66.593	276.66	-144.19	77.134	264.09	-85.908	434.48	933.61	-299.21	505.1	347.81	78.765	-44.998	20.428	-62.476	9.5827	213.82	-81.808	397.03	1155.6	-6.7803	505.67	261.01	70.533	264.44	748.05	284.8	504.71	175.84	59.311	433.69	440.96	-5.8668	561.43	24.386	80.954	434.57	690.45	153.44	266.01	1492.6	-91.771	591.17	39.534	-3.0187	464.75	256.78	115.63	324.72	1029.4	-287.37	470.96	452.69	115.09	465.21	84.442	-5.327	178.12	406.19	-17.665	387.6	663.36	178.11	641.37	42.954	23.955	497.73	835.97	-280.79	187.63	1181.8	-10.17	250.8	994.43	245.16	359.29	742.15	203.26	178.83	938.08	-38.046	185.79	1265.2	57.713	260.33	1504.6	50.454	-99.678	63.534	-118.24	457.54	61.558	74.485	405.37	35.869	32.386	190.56	940.06	61.845	304.27	996.08	-222.79	-89.196	186.08	-47.804	228.74	986.33	168.97	-157.31	218.6	-88.143	-109.64	185.43	-126.77	-80.847	52.589	-39.099	262.95	1392.4	-13.068
327	1.635	407.44	1573.8	-64.933	402.31	1577.9	34.502	381.58	1290.4	-12.54	354.17	877.7	-129.25	376.53	904	116.22	310.37	1324.5	152.62	289.16	1157	209.72	290.41	869.39	279.58	339.69	753.45	261.86	314.57	685.56	304.56	312.21	1345.4	-161.17	320.16	1180.1	-239.18	548.26	883.21	-267.44	580.67	819.94	-298.45	422.46	586.88	155.8	276.78	713.62	-185.32	249.58	545.88	-162.79	317.34	624	-156.49	262.15	628.99	-175.32	207.37	411.58	-149.3	163.67	309.83	-87.894	80.017	277.31	-144.06	89.965	264.8	-85.646	438.88	931.93	-298.24	510.27	346.99	78.793	-39.067	20.894	-63.822	21.356	215.91	-81.742	405.41	1155.8	-6.2322	509.47	260.18	70.503	274.92	748.09	285.53	507.15	175.01	59.227	439.93	441.66	-5.2901	561.8	23.702	81.249	441.89	690.72	155.01	274.21	1492.7	-90.982	591.53	38.186	-3.2621	468.91	256.53	116.02	330.31	1029.1	-285.95	477.81	452.79	115.31	465.93	84.326	-5.2493	193.72	404.19	-17.177	394.57	663.72	178.89	642.01	40.899	23.576	500.89	833.51	-279.99	195.88	1182.2	-9.6848	260.92	994.44	245.92	366.22	742.46	204.17	186.88	938.03	-38.515	194.42	1265.6	58.664	268.57	1504.6	51.249	-91.463	68.037	-119.14	458.29	61.443	74.599	405.65	36.264	32.691	198.41	940.5	61.447	310.04	996.2	-221.16	-78.136	190.27	-48.156	238.54	986.33	169.74	-145.18	224.88	-88.681	-98.298	190.2	-127.19	-73.044	55.91	-40.393	271.48	1392.8	-12.339
328	1.64	415.45	1574.3	-64.155	410.34	1578.3	35.281	390.03	1290.7	-12.149	362.24	877.64	-128.52	384.48	905.14	116.76	319.48	1324.6	153.18	299	1157.1	210.28	300.87	869.51	280.12	350.16	753.6	262.14	325.32	685.7	304.97	320.47	1345.8	-160.67	327.13	1180.1	-238.25	551.92	880.07	-267.03	583.14	816.31	-298.21	429.09	587.19	156.52	287.29	712.69	-184.68	263.09	544.42	-162.46	329.36	623.83	-155.77	274.13	627.76	-174.78	223.07	409.83	-149	177.79	309.24	-87.333	93.778	278.05	-143.8	103.14	265.67	-85.249	443.07	930.28	-297.26	515.08	346.16	78.969	-32.026	21.611	-65.283	33.569	218.08	-81.528	413.69	1156	-5.7814	512.98	259.35	70.58	285.52	748.22	286.21	509.36	174.19	59.215	446.04	442.27	-4.6713	562.08	23.189	81.585	449.01	690.91	156.64	282.41	1492.9	-90.214	591.79	37.105	-3.4265	472.7	256.24	116.45	335.82	1028.9	-284.52	484.23	452.76	115.65	466.52	84.257	-5.1353	209.39	402.49	-16.601	401.32	664.05	179.69	642.52	39.172	23.311	503.77	831.04	-279.16	204.06	1182.8	-9.2429	271.05	994.54	246.64	372.97	742.74	205.08	194.86	938.07	-38.973	203.01	1266.1	59.572	276.8	1504.7	52.024	-82.321	72.592	-120.01	458.91	61.341	74.743	405.86	36.583	32.989	206.18	940.97	61.039	315.71	996.43	-219.5	-66.548	194.43	-48.306	248.31	986.42	170.49	-132.64	230.84	-88.968	-86.447	194.88	-127.43	-64.208	59.284	-41.676	279.98	1393.2	-11.65
329	1.645	423.47	1574.9	-63.368	418.38	1578.8	36.07	398.42	1291	-11.822	370.24	877.71	-127.82	392.37	906.33	117.34	328.56	1324.9	153.68	308.84	1157.3	210.77	311.39	869.72	280.61	360.73	753.86	262.35	336.21	685.94	305.32	328.67	1346.2	-160.21	334.08	1180.2	-237.34	555.33	876.87	-266.6	585.26	812.62	-297.96	435.44	587.44	157.27	297.79	711.94	-184.07	276.64	543.17	-162.11	341.38	623.87	-155.07	286.13	626.72	-174.25	238.89	408.31	-148.64	192.16	308.87	-86.67	107.85	278.88	-143.42	116.66	266.68	-84.728	447.08	928.66	-296.25	519.55	345.3	79.285	-23.818	22.589	-66.804	46.212	220.3	-81.172	421.89	1156.3	-5.4355	516.2	258.51	70.759	296.25	748.42	286.86	511.33	173.41	59.27	452.01	442.77	-4.0192	562.29	22.819	81.945	455.94	691.01	158.29	290.62	1493.2	-89.471	591.96	36.264	-3.5254	476.12	255.9	116.89	341.22	1028.8	-283.07	490.2	452.59	116.09	466.99	84.226	-4.9892	225.1	401.13	-15.95	407.85	664.34	180.5	642.92	37.743	23.143	506.36	828.58	-278.28	212.17	1183.5	-8.8399	281.19	994.72	247.33	379.56	743.02	205.96	202.77	938.21	-39.405	211.55	1266.7	60.434	285.02	1504.9	52.774	-72.234	77.132	-120.83	459.4	61.248	74.915	406.01	36.83	33.276	213.89	941.49	60.637	321.28	996.76	-217.81	-54.439	198.53	-48.256	258.06	986.59	171.23	-119.73	236.45	-89.004	-74.098	199.43	-127.5	-54.331	62.661	-42.915	288.43	1393.8	-11.002
